<mxfile host="app.diagrams.net" modified="2021-01-18T13:31:25.770Z" agent="5.0 (Windows NT 10.0; Win64; x64) AppleWebKit/537.36 (KHTML, like Gecko) Chrome/87.0.4280.141 Safari/537.36" etag="KVHDKzKz1nFEGpKinJ2g" version="14.2.3" type="github">
  <diagram id="C5RBs43oDa-KdzZeNtuy" name="Page-1">
    <mxGraphModel dx="3327" dy="896" grid="1" gridSize="10" guides="1" tooltips="1" connect="1" arrows="1" fold="1" page="1" pageScale="1" pageWidth="827" pageHeight="1169" math="0" shadow="0">
      <root>
        <mxCell id="WIyWlLk6GJQsqaUBKTNV-0" />
        <mxCell id="WIyWlLk6GJQsqaUBKTNV-1" parent="WIyWlLk6GJQsqaUBKTNV-0" />
        <mxCell id="XuE36sU5VSqXOPEqBiMG-0" value="PagingDataAdapter&lt;T&gt;" style="swimlane;fontStyle=1;align=center;verticalAlign=top;childLayout=stackLayout;horizontal=1;startSize=26;horizontalStack=0;resizeParent=1;resizeLast=0;collapsible=1;marginBottom=0;rounded=0;shadow=0;strokeWidth=1;" parent="WIyWlLk6GJQsqaUBKTNV-1" vertex="1">
          <mxGeometry x="-870" y="140" width="460" height="294" as="geometry">
            <mxRectangle x="130" y="380" width="160" height="26" as="alternateBounds" />
          </mxGeometry>
        </mxCell>
        <mxCell id="XuE36sU5VSqXOPEqBiMG-1" value="- differ: AsyncPagingDataDiffer" style="text;align=left;verticalAlign=top;spacingLeft=4;spacingRight=4;overflow=hidden;rotatable=0;points=[[0,0.5],[1,0.5]];portConstraint=eastwest;fontSize=14;" parent="XuE36sU5VSqXOPEqBiMG-0" vertex="1">
          <mxGeometry y="26" width="460" height="26" as="geometry" />
        </mxCell>
        <mxCell id="XuE36sU5VSqXOPEqBiMG-2" value="+ loadStateFlow" style="text;align=left;verticalAlign=top;spacingLeft=4;spacingRight=4;overflow=hidden;rotatable=0;points=[[0,0.5],[1,0.5]];portConstraint=eastwest;rounded=0;shadow=0;html=0;fontSize=14;" parent="XuE36sU5VSqXOPEqBiMG-0" vertex="1">
          <mxGeometry y="52" width="460" height="28" as="geometry" />
        </mxCell>
        <mxCell id="XuE36sU5VSqXOPEqBiMG-5" value="" style="line;html=1;strokeWidth=1;align=left;verticalAlign=middle;spacingTop=-1;spacingLeft=3;spacingRight=3;rotatable=0;labelPosition=right;points=[];portConstraint=eastwest;" parent="XuE36sU5VSqXOPEqBiMG-0" vertex="1">
          <mxGeometry y="80" width="460" height="8" as="geometry" />
        </mxCell>
        <mxCell id="XuE36sU5VSqXOPEqBiMG-6" value="+ submitData(pagingData: PagingData&lt;T&gt;)" style="text;align=left;verticalAlign=top;spacingLeft=4;spacingRight=4;overflow=hidden;rotatable=0;points=[[0,0.5],[1,0.5]];portConstraint=eastwest;fontStyle=4;fontSize=14;" parent="XuE36sU5VSqXOPEqBiMG-0" vertex="1">
          <mxGeometry y="88" width="460" height="24" as="geometry" />
        </mxCell>
        <mxCell id="XuE36sU5VSqXOPEqBiMG-7" value="+ getItem( index: Int): T?" style="text;align=left;verticalAlign=top;spacingLeft=4;spacingRight=4;overflow=hidden;rotatable=0;points=[[0,0.5],[1,0.5]];portConstraint=eastwest;fontStyle=4;fontSize=14;" parent="XuE36sU5VSqXOPEqBiMG-0" vertex="1">
          <mxGeometry y="112" width="460" height="24" as="geometry" />
        </mxCell>
        <mxCell id="XuE36sU5VSqXOPEqBiMG-28" value="+ retry()" style="text;align=left;verticalAlign=top;spacingLeft=4;spacingRight=4;overflow=hidden;rotatable=0;points=[[0,0.5],[1,0.5]];portConstraint=eastwest;fontStyle=4;fontSize=14;" parent="XuE36sU5VSqXOPEqBiMG-0" vertex="1">
          <mxGeometry y="136" width="460" height="24" as="geometry" />
        </mxCell>
        <mxCell id="XuE36sU5VSqXOPEqBiMG-8" value="+ refresh()" style="text;align=left;verticalAlign=top;spacingLeft=4;spacingRight=4;overflow=hidden;rotatable=0;points=[[0,0.5],[1,0.5]];portConstraint=eastwest;fontStyle=4;fontSize=14;" parent="XuE36sU5VSqXOPEqBiMG-0" vertex="1">
          <mxGeometry y="160" width="460" height="24" as="geometry" />
        </mxCell>
        <mxCell id="XuE36sU5VSqXOPEqBiMG-9" value="+ withLoadStateHeader(header: LoadStateAdapter&lt;*&gt;): ConcatAdapter" style="text;align=left;verticalAlign=top;spacingLeft=4;spacingRight=4;overflow=hidden;rotatable=0;points=[[0,0.5],[1,0.5]];portConstraint=eastwest;fontStyle=4;fontSize=14;" parent="XuE36sU5VSqXOPEqBiMG-0" vertex="1">
          <mxGeometry y="184" width="460" height="24" as="geometry" />
        </mxCell>
        <mxCell id="XuE36sU5VSqXOPEqBiMG-10" value="+ withLoadStateFooter(footer: LoadStateAdapter&lt;*&gt;): ConcatAdapter" style="text;align=left;verticalAlign=top;spacingLeft=4;spacingRight=4;overflow=hidden;rotatable=0;points=[[0,0.5],[1,0.5]];portConstraint=eastwest;fontStyle=4;fontSize=14;" parent="XuE36sU5VSqXOPEqBiMG-0" vertex="1">
          <mxGeometry y="208" width="460" height="24" as="geometry" />
        </mxCell>
        <mxCell id="XuE36sU5VSqXOPEqBiMG-11" value="+ fun snapshot(): ItemSnapshotList&lt;T&gt;" style="text;align=left;verticalAlign=top;spacingLeft=4;spacingRight=4;overflow=hidden;rotatable=0;points=[[0,0.5],[1,0.5]];portConstraint=eastwest;fontStyle=4;fontSize=14;" parent="XuE36sU5VSqXOPEqBiMG-0" vertex="1">
          <mxGeometry y="232" width="460" height="24" as="geometry" />
        </mxCell>
        <mxCell id="XuE36sU5VSqXOPEqBiMG-12" style="edgeStyle=orthogonalEdgeStyle;rounded=0;orthogonalLoop=1;jettySize=auto;html=1;exitX=1;exitY=0.5;exitDx=0;exitDy=0;" parent="XuE36sU5VSqXOPEqBiMG-0" source="XuE36sU5VSqXOPEqBiMG-9" target="XuE36sU5VSqXOPEqBiMG-9" edge="1">
          <mxGeometry relative="1" as="geometry" />
        </mxCell>
        <mxCell id="XuE36sU5VSqXOPEqBiMG-13" value="PagingData&lt;T&gt;" style="swimlane;fontStyle=1;align=center;verticalAlign=top;childLayout=stackLayout;horizontal=1;startSize=30;horizontalStack=0;resizeParent=1;resizeLast=0;collapsible=1;marginBottom=0;rounded=0;shadow=0;strokeWidth=1;fontSize=14;" parent="WIyWlLk6GJQsqaUBKTNV-1" vertex="1">
          <mxGeometry x="-740" y="500" width="200" height="163" as="geometry">
            <mxRectangle x="130" y="380" width="160" height="26" as="alternateBounds" />
          </mxGeometry>
        </mxCell>
        <mxCell id="XuE36sU5VSqXOPEqBiMG-14" value="flow: Flow&lt;PageEvent&lt;T&gt;&gt;" style="text;align=left;verticalAlign=top;spacingLeft=4;spacingRight=4;overflow=hidden;rotatable=0;points=[[0,0.5],[1,0.5]];portConstraint=eastwest;fontSize=14;" parent="XuE36sU5VSqXOPEqBiMG-13" vertex="1">
          <mxGeometry y="30" width="200" height="26" as="geometry" />
        </mxCell>
        <mxCell id="XuE36sU5VSqXOPEqBiMG-15" value="receiver: UiReceiver" style="text;align=left;verticalAlign=top;spacingLeft=4;spacingRight=4;overflow=hidden;rotatable=0;points=[[0,0.5],[1,0.5]];portConstraint=eastwest;rounded=0;shadow=0;html=0;fontSize=14;" parent="XuE36sU5VSqXOPEqBiMG-13" vertex="1">
          <mxGeometry y="56" width="200" height="26" as="geometry" />
        </mxCell>
        <mxCell id="XuE36sU5VSqXOPEqBiMG-16" value="" style="line;html=1;strokeWidth=1;align=left;verticalAlign=middle;spacingTop=-1;spacingLeft=3;spacingRight=3;rotatable=0;labelPosition=right;points=[];portConstraint=eastwest;" parent="XuE36sU5VSqXOPEqBiMG-13" vertex="1">
          <mxGeometry y="82" width="200" height="8" as="geometry" />
        </mxCell>
        <mxCell id="ubvXgTzYV1vVZ8Mo8wRW-0" value="Pager&lt;Key : Any, Value : Any&gt;" style="swimlane;fontStyle=1;align=center;verticalAlign=top;childLayout=stackLayout;horizontal=1;startSize=30;horizontalStack=0;resizeParent=1;resizeLast=0;collapsible=1;marginBottom=0;rounded=0;shadow=0;strokeWidth=1;fontSize=14;" vertex="1" parent="WIyWlLk6GJQsqaUBKTNV-1">
          <mxGeometry x="-780" y="740" width="260" height="130" as="geometry">
            <mxRectangle x="130" y="380" width="160" height="26" as="alternateBounds" />
          </mxGeometry>
        </mxCell>
        <mxCell id="ubvXgTzYV1vVZ8Mo8wRW-1" value="+ flow: Flow&lt;PagingData&lt;Value&gt;&gt;" style="text;align=left;verticalAlign=top;spacingLeft=4;spacingRight=4;overflow=hidden;rotatable=0;points=[[0,0.5],[1,0.5]];portConstraint=eastwest;fontSize=14;" vertex="1" parent="ubvXgTzYV1vVZ8Mo8wRW-0">
          <mxGeometry y="30" width="260" height="26" as="geometry" />
        </mxCell>
        <mxCell id="ubvXgTzYV1vVZ8Mo8wRW-3" value="" style="line;html=1;strokeWidth=1;align=left;verticalAlign=middle;spacingTop=-1;spacingLeft=3;spacingRight=3;rotatable=0;labelPosition=right;points=[];portConstraint=eastwest;" vertex="1" parent="ubvXgTzYV1vVZ8Mo8wRW-0">
          <mxGeometry y="56" width="260" height="8" as="geometry" />
        </mxCell>
        <mxCell id="ubvXgTzYV1vVZ8Mo8wRW-16" value="PagingSource&lt;Key, Value&gt;&#xa;{abstract}" style="swimlane;fontStyle=1;align=center;verticalAlign=top;childLayout=stackLayout;horizontal=1;startSize=50;horizontalStack=0;resizeParent=1;resizeLast=0;collapsible=1;marginBottom=0;rounded=0;shadow=0;strokeWidth=1;fontSize=14;" vertex="1" parent="WIyWlLk6GJQsqaUBKTNV-1">
          <mxGeometry x="-1180" y="710" width="300" height="120" as="geometry">
            <mxRectangle x="130" y="380" width="160" height="26" as="alternateBounds" />
          </mxGeometry>
        </mxCell>
        <mxCell id="ubvXgTzYV1vVZ8Mo8wRW-18" value="" style="line;html=1;strokeWidth=1;align=left;verticalAlign=middle;spacingTop=-1;spacingLeft=3;spacingRight=3;rotatable=0;labelPosition=right;points=[];portConstraint=eastwest;" vertex="1" parent="ubvXgTzYV1vVZ8Mo8wRW-16">
          <mxGeometry y="50" width="300" height="8" as="geometry" />
        </mxCell>
        <mxCell id="ubvXgTzYV1vVZ8Mo8wRW-19" value="# load(params: LoadParams&lt;Key&gt;):&#xa; LoadResult&lt;Key, Value&gt;" style="text;align=left;verticalAlign=top;spacingLeft=4;spacingRight=4;overflow=hidden;rotatable=0;points=[[0,0.5],[1,0.5]];portConstraint=eastwest;fontSize=14;" vertex="1" parent="ubvXgTzYV1vVZ8Mo8wRW-16">
          <mxGeometry y="58" width="300" height="46" as="geometry" />
        </mxCell>
        <mxCell id="ubvXgTzYV1vVZ8Mo8wRW-24" value="" style="html=1;verticalAlign=bottom;endArrow=open;dashed=1;endSize=8;exitX=0.5;exitY=1;exitDx=0;exitDy=0;entryX=0.5;entryY=0;entryDx=0;entryDy=0;" edge="1" parent="WIyWlLk6GJQsqaUBKTNV-1" source="XuE36sU5VSqXOPEqBiMG-0" target="XuE36sU5VSqXOPEqBiMG-13">
          <mxGeometry y="-60" relative="1" as="geometry">
            <mxPoint x="-530" y="280" as="sourcePoint" />
            <mxPoint x="-530" y="320" as="targetPoint" />
            <mxPoint as="offset" />
          </mxGeometry>
        </mxCell>
        <mxCell id="ubvXgTzYV1vVZ8Mo8wRW-25" value="" style="html=1;verticalAlign=bottom;endArrow=open;dashed=1;endSize=8;entryX=1;entryY=0.417;entryDx=0;entryDy=0;entryPerimeter=0;" edge="1" parent="WIyWlLk6GJQsqaUBKTNV-1" target="ubvXgTzYV1vVZ8Mo8wRW-16">
          <mxGeometry y="-60" relative="1" as="geometry">
            <mxPoint x="-780" y="790" as="sourcePoint" />
            <mxPoint x="-860" y="790" as="targetPoint" />
            <mxPoint as="offset" />
          </mxGeometry>
        </mxCell>
        <mxCell id="ubvXgTzYV1vVZ8Mo8wRW-29" value="RemoteMediator&lt;Key, Value&gt;&#xa;{abstract}" style="swimlane;fontStyle=1;align=center;verticalAlign=top;childLayout=stackLayout;horizontal=1;startSize=50;horizontalStack=0;resizeParent=1;resizeLast=0;collapsible=1;marginBottom=0;rounded=0;shadow=0;strokeWidth=1;fontSize=14;" vertex="1" parent="WIyWlLk6GJQsqaUBKTNV-1">
          <mxGeometry x="-450" y="720" width="390" height="150" as="geometry">
            <mxRectangle x="130" y="380" width="160" height="26" as="alternateBounds" />
          </mxGeometry>
        </mxCell>
        <mxCell id="ubvXgTzYV1vVZ8Mo8wRW-30" value="" style="line;html=1;strokeWidth=1;align=left;verticalAlign=middle;spacingTop=-1;spacingLeft=3;spacingRight=3;rotatable=0;labelPosition=right;points=[];portConstraint=eastwest;" vertex="1" parent="ubvXgTzYV1vVZ8Mo8wRW-29">
          <mxGeometry y="50" width="390" height="8" as="geometry" />
        </mxCell>
        <mxCell id="ubvXgTzYV1vVZ8Mo8wRW-31" value="# load(loadType: LoadType, state: PagingState&lt;Key, Value&gt;):&#xa; MediatorResult" style="text;align=left;verticalAlign=top;spacingLeft=4;spacingRight=4;overflow=hidden;rotatable=0;points=[[0,0.5],[1,0.5]];portConstraint=eastwest;fontSize=14;" vertex="1" parent="ubvXgTzYV1vVZ8Mo8wRW-29">
          <mxGeometry y="58" width="390" height="46" as="geometry" />
        </mxCell>
        <mxCell id="ubvXgTzYV1vVZ8Mo8wRW-32" value="# initialize(): InitializeAction" style="text;align=left;verticalAlign=top;spacingLeft=4;spacingRight=4;overflow=hidden;rotatable=0;points=[[0,0.5],[1,0.5]];portConstraint=eastwest;fontSize=14;" vertex="1" parent="ubvXgTzYV1vVZ8Mo8wRW-29">
          <mxGeometry y="104" width="390" height="46" as="geometry" />
        </mxCell>
        <mxCell id="ubvXgTzYV1vVZ8Mo8wRW-35" value="" style="html=1;verticalAlign=bottom;endArrow=open;dashed=1;endSize=8;exitX=1;exitY=0.5;exitDx=0;exitDy=0;entryX=0;entryY=0.5;entryDx=0;entryDy=0;" edge="1" parent="WIyWlLk6GJQsqaUBKTNV-1" source="ubvXgTzYV1vVZ8Mo8wRW-0" target="ubvXgTzYV1vVZ8Mo8wRW-31">
          <mxGeometry y="-60" relative="1" as="geometry">
            <mxPoint x="-780" y="830" as="sourcePoint" />
            <mxPoint x="-452" y="805" as="targetPoint" />
            <mxPoint as="offset" />
          </mxGeometry>
        </mxCell>
        <mxCell id="ubvXgTzYV1vVZ8Mo8wRW-57" value="" style="endArrow=classic;html=1;exitX=0.527;exitY=-0.023;exitDx=0;exitDy=0;entryX=0.5;entryY=1;entryDx=0;entryDy=0;exitPerimeter=0;" edge="1" parent="WIyWlLk6GJQsqaUBKTNV-1" source="ubvXgTzYV1vVZ8Mo8wRW-0" target="XuE36sU5VSqXOPEqBiMG-13">
          <mxGeometry relative="1" as="geometry">
            <mxPoint x="-1000" y="-20" as="sourcePoint" />
            <mxPoint x="-840" y="-20" as="targetPoint" />
          </mxGeometry>
        </mxCell>
        <mxCell id="ubvXgTzYV1vVZ8Mo8wRW-58" value="创建" style="edgeLabel;resizable=0;html=1;align=center;verticalAlign=middle;" connectable="0" vertex="1" parent="ubvXgTzYV1vVZ8Mo8wRW-57">
          <mxGeometry relative="1" as="geometry" />
        </mxCell>
        <mxCell id="ubvXgTzYV1vVZ8Mo8wRW-62" value="PagingConfig" style="swimlane;fontStyle=1;align=center;verticalAlign=top;childLayout=stackLayout;horizontal=1;startSize=30;horizontalStack=0;resizeParent=1;resizeLast=0;collapsible=1;marginBottom=0;rounded=0;shadow=0;strokeWidth=1;fontSize=14;" vertex="1" parent="WIyWlLk6GJQsqaUBKTNV-1">
          <mxGeometry x="-1080" y="480" width="200" height="186" as="geometry">
            <mxRectangle x="130" y="380" width="160" height="26" as="alternateBounds" />
          </mxGeometry>
        </mxCell>
        <mxCell id="ubvXgTzYV1vVZ8Mo8wRW-63" value="pageSize: Int" style="text;align=left;verticalAlign=top;spacingLeft=4;spacingRight=4;overflow=hidden;rotatable=0;points=[[0,0.5],[1,0.5]];portConstraint=eastwest;fontSize=14;" vertex="1" parent="ubvXgTzYV1vVZ8Mo8wRW-62">
          <mxGeometry y="30" width="200" height="26" as="geometry" />
        </mxCell>
        <mxCell id="ubvXgTzYV1vVZ8Mo8wRW-64" value="prefetchDistance: Int" style="text;align=left;verticalAlign=top;spacingLeft=4;spacingRight=4;overflow=hidden;rotatable=0;points=[[0,0.5],[1,0.5]];portConstraint=eastwest;rounded=0;shadow=0;html=0;fontSize=14;" vertex="1" parent="ubvXgTzYV1vVZ8Mo8wRW-62">
          <mxGeometry y="56" width="200" height="26" as="geometry" />
        </mxCell>
        <mxCell id="ubvXgTzYV1vVZ8Mo8wRW-66" value="enablePlaceholders: Boolean" style="text;align=left;verticalAlign=top;spacingLeft=4;spacingRight=4;overflow=hidden;rotatable=0;points=[[0,0.5],[1,0.5]];portConstraint=eastwest;rounded=0;shadow=0;html=0;fontSize=14;" vertex="1" parent="ubvXgTzYV1vVZ8Mo8wRW-62">
          <mxGeometry y="82" width="200" height="26" as="geometry" />
        </mxCell>
        <mxCell id="ubvXgTzYV1vVZ8Mo8wRW-67" value="initialLoadSize: Int" style="text;align=left;verticalAlign=top;spacingLeft=4;spacingRight=4;overflow=hidden;rotatable=0;points=[[0,0.5],[1,0.5]];portConstraint=eastwest;rounded=0;shadow=0;html=0;fontSize=14;" vertex="1" parent="ubvXgTzYV1vVZ8Mo8wRW-62">
          <mxGeometry y="108" width="200" height="26" as="geometry" />
        </mxCell>
        <mxCell id="ubvXgTzYV1vVZ8Mo8wRW-69" value="maxSize: Int" style="text;align=left;verticalAlign=top;spacingLeft=4;spacingRight=4;overflow=hidden;rotatable=0;points=[[0,0.5],[1,0.5]];portConstraint=eastwest;rounded=0;shadow=0;html=0;fontSize=14;" vertex="1" parent="ubvXgTzYV1vVZ8Mo8wRW-62">
          <mxGeometry y="134" width="200" height="26" as="geometry" />
        </mxCell>
        <mxCell id="ubvXgTzYV1vVZ8Mo8wRW-76" value="jumpThreshold: Int" style="text;align=left;verticalAlign=top;spacingLeft=4;spacingRight=4;overflow=hidden;rotatable=0;points=[[0,0.5],[1,0.5]];portConstraint=eastwest;rounded=0;shadow=0;html=0;fontSize=14;" vertex="1" parent="ubvXgTzYV1vVZ8Mo8wRW-62">
          <mxGeometry y="160" width="200" height="26" as="geometry" />
        </mxCell>
        <mxCell id="ubvXgTzYV1vVZ8Mo8wRW-80" value="" style="html=1;verticalAlign=bottom;endArrow=open;dashed=1;endSize=8;exitX=-0.015;exitY=0.115;exitDx=0;exitDy=0;exitPerimeter=0;entryX=1.005;entryY=-0.115;entryDx=0;entryDy=0;entryPerimeter=0;" edge="1" parent="WIyWlLk6GJQsqaUBKTNV-1" source="ubvXgTzYV1vVZ8Mo8wRW-1" target="ubvXgTzYV1vVZ8Mo8wRW-67">
          <mxGeometry y="-50" relative="1" as="geometry">
            <mxPoint x="-810" y="660" as="sourcePoint" />
            <mxPoint x="-890" y="660" as="targetPoint" />
            <mxPoint as="offset" />
          </mxGeometry>
        </mxCell>
        <mxCell id="ubvXgTzYV1vVZ8Mo8wRW-95" value="LoadParams&lt;Key&gt;" style="swimlane;fontStyle=1;align=center;verticalAlign=top;childLayout=stackLayout;horizontal=1;startSize=30;horizontalStack=0;resizeParent=1;resizeLast=0;collapsible=1;marginBottom=0;rounded=0;shadow=0;strokeWidth=1;fontSize=14;" vertex="1" parent="WIyWlLk6GJQsqaUBKTNV-1">
          <mxGeometry x="-1140" y="900" width="210" height="163" as="geometry">
            <mxRectangle x="130" y="380" width="160" height="26" as="alternateBounds" />
          </mxGeometry>
        </mxCell>
        <mxCell id="ubvXgTzYV1vVZ8Mo8wRW-96" value="+ loadSize: Int" style="text;align=left;verticalAlign=top;spacingLeft=4;spacingRight=4;overflow=hidden;rotatable=0;points=[[0,0.5],[1,0.5]];portConstraint=eastwest;fontSize=14;" vertex="1" parent="ubvXgTzYV1vVZ8Mo8wRW-95">
          <mxGeometry y="30" width="210" height="26" as="geometry" />
        </mxCell>
        <mxCell id="ubvXgTzYV1vVZ8Mo8wRW-97" value="+ placeholdersEnabled: Boolean" style="text;align=left;verticalAlign=top;spacingLeft=4;spacingRight=4;overflow=hidden;rotatable=0;points=[[0,0.5],[1,0.5]];portConstraint=eastwest;rounded=0;shadow=0;html=0;fontSize=14;" vertex="1" parent="ubvXgTzYV1vVZ8Mo8wRW-95">
          <mxGeometry y="56" width="210" height="26" as="geometry" />
        </mxCell>
        <mxCell id="ubvXgTzYV1vVZ8Mo8wRW-102" value="+ key: Key?" style="text;align=left;verticalAlign=top;spacingLeft=4;spacingRight=4;overflow=hidden;rotatable=0;points=[[0,0.5],[1,0.5]];portConstraint=eastwest;rounded=0;shadow=0;html=0;fontSize=14;" vertex="1" parent="ubvXgTzYV1vVZ8Mo8wRW-95">
          <mxGeometry y="82" width="210" height="26" as="geometry" />
        </mxCell>
        <mxCell id="ubvXgTzYV1vVZ8Mo8wRW-98" value="" style="line;html=1;strokeWidth=1;align=left;verticalAlign=middle;spacingTop=-1;spacingLeft=3;spacingRight=3;rotatable=0;labelPosition=right;points=[];portConstraint=eastwest;" vertex="1" parent="ubvXgTzYV1vVZ8Mo8wRW-95">
          <mxGeometry y="108" width="210" height="8" as="geometry" />
        </mxCell>
        <mxCell id="ubvXgTzYV1vVZ8Mo8wRW-99" value="" style="html=1;verticalAlign=bottom;endArrow=open;dashed=1;endSize=8;" edge="1" parent="WIyWlLk6GJQsqaUBKTNV-1">
          <mxGeometry relative="1" as="geometry">
            <mxPoint x="-490" y="1340" as="sourcePoint" />
            <mxPoint x="-570" y="1340" as="targetPoint" />
          </mxGeometry>
        </mxCell>
        <mxCell id="ubvXgTzYV1vVZ8Mo8wRW-101" value="" style="html=1;verticalAlign=bottom;endArrow=open;dashed=1;endSize=8;exitX=0.5;exitY=1;exitDx=0;exitDy=0;entryX=0.5;entryY=0;entryDx=0;entryDy=0;" edge="1" parent="WIyWlLk6GJQsqaUBKTNV-1" source="ubvXgTzYV1vVZ8Mo8wRW-16" target="ubvXgTzYV1vVZ8Mo8wRW-95">
          <mxGeometry relative="1" as="geometry">
            <mxPoint x="-1230" y="910" as="sourcePoint" />
            <mxPoint x="-1310" y="910" as="targetPoint" />
          </mxGeometry>
        </mxCell>
        <mxCell id="ubvXgTzYV1vVZ8Mo8wRW-105" value="&lt;b&gt;&lt;font style=&quot;font-size: 14px&quot;&gt;Refresh&amp;lt;Key&amp;gt;&lt;/font&gt;&lt;/b&gt;" style="html=1;" vertex="1" parent="WIyWlLk6GJQsqaUBKTNV-1">
          <mxGeometry x="-1220" y="1160" width="110" height="50" as="geometry" />
        </mxCell>
        <mxCell id="ubvXgTzYV1vVZ8Mo8wRW-106" value="&lt;b&gt;&lt;font style=&quot;font-size: 14px&quot;&gt;Append&amp;lt;Key&amp;gt;&lt;/font&gt;&lt;/b&gt;" style="html=1;" vertex="1" parent="WIyWlLk6GJQsqaUBKTNV-1">
          <mxGeometry x="-1090" y="1160" width="110" height="50" as="geometry" />
        </mxCell>
        <mxCell id="ubvXgTzYV1vVZ8Mo8wRW-107" value="&lt;b&gt;&lt;font style=&quot;font-size: 14px&quot;&gt;Prepend&amp;lt;Key&amp;gt;&lt;/font&gt;&lt;/b&gt;" style="html=1;" vertex="1" parent="WIyWlLk6GJQsqaUBKTNV-1">
          <mxGeometry x="-960" y="1160" width="110" height="50" as="geometry" />
        </mxCell>
        <mxCell id="ubvXgTzYV1vVZ8Mo8wRW-108" value="" style="endArrow=block;endSize=16;endFill=0;html=1;" edge="1" parent="WIyWlLk6GJQsqaUBKTNV-1">
          <mxGeometry x="-0.125" y="-30" width="160" relative="1" as="geometry">
            <mxPoint x="-620" y="1300" as="sourcePoint" />
            <mxPoint x="-460" y="1300" as="targetPoint" />
            <mxPoint x="-1" as="offset" />
          </mxGeometry>
        </mxCell>
        <mxCell id="ubvXgTzYV1vVZ8Mo8wRW-113" value="LoadResult&lt;Key, Value&gt;" style="swimlane;fontStyle=1;align=center;verticalAlign=top;childLayout=stackLayout;horizontal=1;startSize=30;horizontalStack=0;resizeParent=1;resizeLast=0;collapsible=1;marginBottom=0;rounded=0;shadow=0;strokeWidth=1;fontSize=14;" vertex="1" parent="WIyWlLk6GJQsqaUBKTNV-1">
          <mxGeometry x="-1470" y="710" width="210" height="163" as="geometry">
            <mxRectangle x="130" y="380" width="160" height="26" as="alternateBounds" />
          </mxGeometry>
        </mxCell>
        <mxCell id="ubvXgTzYV1vVZ8Mo8wRW-114" value="+ loadSize: Int" style="text;align=left;verticalAlign=top;spacingLeft=4;spacingRight=4;overflow=hidden;rotatable=0;points=[[0,0.5],[1,0.5]];portConstraint=eastwest;fontSize=14;" vertex="1" parent="ubvXgTzYV1vVZ8Mo8wRW-113">
          <mxGeometry y="30" width="210" height="26" as="geometry" />
        </mxCell>
        <mxCell id="ubvXgTzYV1vVZ8Mo8wRW-115" value="+ placeholdersEnabled: Boolean" style="text;align=left;verticalAlign=top;spacingLeft=4;spacingRight=4;overflow=hidden;rotatable=0;points=[[0,0.5],[1,0.5]];portConstraint=eastwest;rounded=0;shadow=0;html=0;fontSize=14;" vertex="1" parent="ubvXgTzYV1vVZ8Mo8wRW-113">
          <mxGeometry y="56" width="210" height="26" as="geometry" />
        </mxCell>
        <mxCell id="ubvXgTzYV1vVZ8Mo8wRW-116" value="+ key: Key?" style="text;align=left;verticalAlign=top;spacingLeft=4;spacingRight=4;overflow=hidden;rotatable=0;points=[[0,0.5],[1,0.5]];portConstraint=eastwest;rounded=0;shadow=0;html=0;fontSize=14;" vertex="1" parent="ubvXgTzYV1vVZ8Mo8wRW-113">
          <mxGeometry y="82" width="210" height="26" as="geometry" />
        </mxCell>
        <mxCell id="ubvXgTzYV1vVZ8Mo8wRW-117" value="" style="line;html=1;strokeWidth=1;align=left;verticalAlign=middle;spacingTop=-1;spacingLeft=3;spacingRight=3;rotatable=0;labelPosition=right;points=[];portConstraint=eastwest;" vertex="1" parent="ubvXgTzYV1vVZ8Mo8wRW-113">
          <mxGeometry y="108" width="210" height="8" as="geometry" />
        </mxCell>
        <mxCell id="ubvXgTzYV1vVZ8Mo8wRW-118" value="" style="endArrow=block;endSize=10;endFill=0;shadow=0;strokeWidth=1;rounded=0;edgeStyle=elbowEdgeStyle;elbow=vertical;entryX=0.5;entryY=1;entryDx=0;entryDy=0;exitX=0.5;exitY=0;exitDx=0;exitDy=0;" edge="1" parent="WIyWlLk6GJQsqaUBKTNV-1" source="ubvXgTzYV1vVZ8Mo8wRW-105" target="ubvXgTzYV1vVZ8Mo8wRW-95">
          <mxGeometry width="160" relative="1" as="geometry">
            <mxPoint x="-1190" y="1190" as="sourcePoint" />
            <mxPoint x="-1080" y="1090" as="targetPoint" />
          </mxGeometry>
        </mxCell>
        <mxCell id="ubvXgTzYV1vVZ8Mo8wRW-119" value="" style="endArrow=block;endSize=10;endFill=0;shadow=0;strokeWidth=1;rounded=0;edgeStyle=elbowEdgeStyle;elbow=vertical;entryX=0.5;entryY=1;entryDx=0;entryDy=0;exitX=0.5;exitY=0;exitDx=0;exitDy=0;" edge="1" parent="WIyWlLk6GJQsqaUBKTNV-1" source="ubvXgTzYV1vVZ8Mo8wRW-107" target="ubvXgTzYV1vVZ8Mo8wRW-95">
          <mxGeometry width="160" relative="1" as="geometry">
            <mxPoint x="-930" y="1192" as="sourcePoint" />
            <mxPoint x="-1040" y="1090" as="targetPoint" />
          </mxGeometry>
        </mxCell>
        <mxCell id="ubvXgTzYV1vVZ8Mo8wRW-120" value="" style="endArrow=block;endSize=10;endFill=0;shadow=0;strokeWidth=1;rounded=0;edgeStyle=elbowEdgeStyle;elbow=vertical;entryX=0.5;entryY=1;entryDx=0;entryDy=0;" edge="1" parent="WIyWlLk6GJQsqaUBKTNV-1" source="ubvXgTzYV1vVZ8Mo8wRW-106" target="ubvXgTzYV1vVZ8Mo8wRW-95">
          <mxGeometry width="160" relative="1" as="geometry">
            <mxPoint x="-640" y="1192" as="sourcePoint" />
            <mxPoint x="-540" y="1090" as="targetPoint" />
          </mxGeometry>
        </mxCell>
        <mxCell id="ubvXgTzYV1vVZ8Mo8wRW-122" value="" style="html=1;verticalAlign=bottom;endArrow=open;dashed=1;endSize=8;exitX=0;exitY=0.261;exitDx=0;exitDy=0;exitPerimeter=0;entryX=1.006;entryY=-0.036;entryDx=0;entryDy=0;entryPerimeter=0;" edge="1" parent="WIyWlLk6GJQsqaUBKTNV-1" source="ubvXgTzYV1vVZ8Mo8wRW-19" target="ubvXgTzYV1vVZ8Mo8wRW-116">
          <mxGeometry relative="1" as="geometry">
            <mxPoint x="-1280" y="980.9100000000001" as="sourcePoint" />
            <mxPoint x="-1360" y="980.9100000000001" as="targetPoint" />
          </mxGeometry>
        </mxCell>
        <mxCell id="ubvXgTzYV1vVZ8Mo8wRW-126" value="" style="endArrow=block;endSize=10;endFill=0;shadow=0;strokeWidth=1;rounded=0;edgeStyle=elbowEdgeStyle;elbow=vertical;entryX=0.5;entryY=1;entryDx=0;entryDy=0;" edge="1" source="ubvXgTzYV1vVZ8Mo8wRW-134" parent="WIyWlLk6GJQsqaUBKTNV-1">
          <mxGeometry width="160" relative="1" as="geometry">
            <mxPoint x="-1450" y="970" as="sourcePoint" />
            <mxPoint x="-1365" y="873" as="targetPoint" />
          </mxGeometry>
        </mxCell>
        <mxCell id="ubvXgTzYV1vVZ8Mo8wRW-127" value="" style="endArrow=block;endSize=10;endFill=0;shadow=0;strokeWidth=1;rounded=0;edgeStyle=elbowEdgeStyle;elbow=vertical;entryX=0.5;entryY=1;entryDx=0;entryDy=0;exitX=0.5;exitY=0;exitDx=0;exitDy=0;" edge="1" source="ubvXgTzYV1vVZ8Mo8wRW-140" parent="WIyWlLk6GJQsqaUBKTNV-1">
          <mxGeometry width="160" relative="1" as="geometry">
            <mxPoint x="-1290" y="970" as="sourcePoint" />
            <mxPoint x="-1365" y="873" as="targetPoint" />
          </mxGeometry>
        </mxCell>
        <mxCell id="ubvXgTzYV1vVZ8Mo8wRW-134" value="Page&lt;Key，Value&gt;" style="swimlane;fontStyle=1;align=center;verticalAlign=top;childLayout=stackLayout;horizontal=1;startSize=30;horizontalStack=0;resizeParent=1;resizeLast=0;collapsible=1;marginBottom=0;rounded=0;shadow=0;strokeWidth=1;fontSize=14;" vertex="1" parent="WIyWlLk6GJQsqaUBKTNV-1">
          <mxGeometry x="-1560" y="970" width="150" height="163" as="geometry">
            <mxRectangle x="130" y="380" width="160" height="26" as="alternateBounds" />
          </mxGeometry>
        </mxCell>
        <mxCell id="ubvXgTzYV1vVZ8Mo8wRW-135" value="data: List&lt;Value&gt;" style="text;align=left;verticalAlign=top;spacingLeft=4;spacingRight=4;overflow=hidden;rotatable=0;points=[[0,0.5],[1,0.5]];portConstraint=eastwest;fontSize=14;" vertex="1" parent="ubvXgTzYV1vVZ8Mo8wRW-134">
          <mxGeometry y="30" width="150" height="26" as="geometry" />
        </mxCell>
        <mxCell id="ubvXgTzYV1vVZ8Mo8wRW-136" value="prevKey: Key?" style="text;align=left;verticalAlign=top;spacingLeft=4;spacingRight=4;overflow=hidden;rotatable=0;points=[[0,0.5],[1,0.5]];portConstraint=eastwest;rounded=0;shadow=0;html=0;fontSize=14;" vertex="1" parent="ubvXgTzYV1vVZ8Mo8wRW-134">
          <mxGeometry y="56" width="150" height="26" as="geometry" />
        </mxCell>
        <mxCell id="ubvXgTzYV1vVZ8Mo8wRW-138" value="nextKey: Key?" style="text;align=left;verticalAlign=top;spacingLeft=4;spacingRight=4;overflow=hidden;rotatable=0;points=[[0,0.5],[1,0.5]];portConstraint=eastwest;rounded=0;shadow=0;html=0;fontSize=14;" vertex="1" parent="ubvXgTzYV1vVZ8Mo8wRW-134">
          <mxGeometry y="82" width="150" height="28" as="geometry" />
        </mxCell>
        <mxCell id="ubvXgTzYV1vVZ8Mo8wRW-137" value="" style="line;html=1;strokeWidth=1;align=left;verticalAlign=middle;spacingTop=-1;spacingLeft=3;spacingRight=3;rotatable=0;labelPosition=right;points=[];portConstraint=eastwest;" vertex="1" parent="ubvXgTzYV1vVZ8Mo8wRW-134">
          <mxGeometry y="110" width="150" height="8" as="geometry" />
        </mxCell>
        <mxCell id="ubvXgTzYV1vVZ8Mo8wRW-140" value="Error&lt;Key，Value&gt;" style="swimlane;fontStyle=1;align=center;verticalAlign=top;childLayout=stackLayout;horizontal=1;startSize=30;horizontalStack=0;resizeParent=1;resizeLast=0;collapsible=1;marginBottom=0;rounded=0;shadow=0;strokeWidth=1;fontSize=14;" vertex="1" parent="WIyWlLk6GJQsqaUBKTNV-1">
          <mxGeometry x="-1380" y="970" width="150" height="163" as="geometry">
            <mxRectangle x="130" y="380" width="160" height="26" as="alternateBounds" />
          </mxGeometry>
        </mxCell>
        <mxCell id="ubvXgTzYV1vVZ8Mo8wRW-141" value="data: List&lt;Value&gt;" style="text;align=left;verticalAlign=top;spacingLeft=4;spacingRight=4;overflow=hidden;rotatable=0;points=[[0,0.5],[1,0.5]];portConstraint=eastwest;fontSize=14;" vertex="1" parent="ubvXgTzYV1vVZ8Mo8wRW-140">
          <mxGeometry y="30" width="150" height="26" as="geometry" />
        </mxCell>
        <mxCell id="ubvXgTzYV1vVZ8Mo8wRW-142" value="prevKey: Key?" style="text;align=left;verticalAlign=top;spacingLeft=4;spacingRight=4;overflow=hidden;rotatable=0;points=[[0,0.5],[1,0.5]];portConstraint=eastwest;rounded=0;shadow=0;html=0;fontSize=14;" vertex="1" parent="ubvXgTzYV1vVZ8Mo8wRW-140">
          <mxGeometry y="56" width="150" height="26" as="geometry" />
        </mxCell>
        <mxCell id="ubvXgTzYV1vVZ8Mo8wRW-143" value="nextKey: Key?" style="text;align=left;verticalAlign=top;spacingLeft=4;spacingRight=4;overflow=hidden;rotatable=0;points=[[0,0.5],[1,0.5]];portConstraint=eastwest;rounded=0;shadow=0;html=0;fontSize=14;" vertex="1" parent="ubvXgTzYV1vVZ8Mo8wRW-140">
          <mxGeometry y="82" width="150" height="28" as="geometry" />
        </mxCell>
        <mxCell id="ubvXgTzYV1vVZ8Mo8wRW-144" value="" style="line;html=1;strokeWidth=1;align=left;verticalAlign=middle;spacingTop=-1;spacingLeft=3;spacingRight=3;rotatable=0;labelPosition=right;points=[];portConstraint=eastwest;" vertex="1" parent="ubvXgTzYV1vVZ8Mo8wRW-140">
          <mxGeometry y="110" width="150" height="8" as="geometry" />
        </mxCell>
      </root>
    </mxGraphModel>
  </diagram>
</mxfile>
